<mxfile host="app.diagrams.net" modified="2024-02-26T17:22:49.717Z" agent="Mozilla/5.0 (Macintosh; Intel Mac OS X 10_15_7) AppleWebKit/537.36 (KHTML, like Gecko) Chrome/122.0.0.0 Safari/537.36" etag="ZGRNJi69sxBdoib0U6YN" version="23.1.2" type="github">
  <diagram name="Page-1" id="Bb5PjucaasYFHXv9t2hh">
    <mxGraphModel dx="2611" dy="669" grid="1" gridSize="10" guides="1" tooltips="1" connect="1" arrows="1" fold="1" page="1" pageScale="1" pageWidth="850" pageHeight="1100" math="0" shadow="0">
      <root>
        <mxCell id="0" />
        <mxCell id="1" parent="0" />
        <mxCell id="6EMSi_ttVj-jGXqPHPJ0-9" value="" style="rounded=1;whiteSpace=wrap;html=1;dashed=1;" parent="1" vertex="1">
          <mxGeometry x="108.5" y="657" width="600" height="140" as="geometry" />
        </mxCell>
        <mxCell id="6EMSi_ttVj-jGXqPHPJ0-13" style="edgeStyle=none;rounded=0;orthogonalLoop=1;jettySize=auto;html=1;entryX=0.5;entryY=0;entryDx=0;entryDy=0;strokeColor=#006633;strokeWidth=5;" parent="1" source="Q_MenP5QwrPpLCp4PIsN-1" target="6EMSi_ttVj-jGXqPHPJ0-9" edge="1">
          <mxGeometry relative="1" as="geometry" />
        </mxCell>
        <mxCell id="Q_MenP5QwrPpLCp4PIsN-1" value="App" style="rounded=1;whiteSpace=wrap;html=1;" parent="1" vertex="1">
          <mxGeometry x="350" y="380" width="120" height="60" as="geometry" />
        </mxCell>
        <mxCell id="Q_MenP5QwrPpLCp4PIsN-2" value="RDS&lt;br&gt;(single instance)" style="shape=cylinder3;whiteSpace=wrap;html=1;boundedLbl=1;backgroundOutline=1;size=15;" parent="1" vertex="1">
          <mxGeometry x="167.5" y="687" width="110" height="80" as="geometry" />
        </mxCell>
        <mxCell id="Q_MenP5QwrPpLCp4PIsN-21" style="edgeStyle=none;rounded=0;orthogonalLoop=1;jettySize=auto;html=1;entryX=0.5;entryY=0;entryDx=0;entryDy=0;strokeColor=#006600;strokeWidth=5;" parent="1" source="Q_MenP5QwrPpLCp4PIsN-3" target="Q_MenP5QwrPpLCp4PIsN-1" edge="1">
          <mxGeometry relative="1" as="geometry" />
        </mxCell>
        <mxCell id="Q_MenP5QwrPpLCp4PIsN-3" value="Customers" style="shape=umlActor;verticalLabelPosition=bottom;verticalAlign=top;html=1;outlineConnect=0;" parent="1" vertex="1">
          <mxGeometry x="395" y="230" width="30" height="60" as="geometry" />
        </mxCell>
        <mxCell id="6EMSi_ttVj-jGXqPHPJ0-11" style="edgeStyle=entityRelationEdgeStyle;rounded=0;orthogonalLoop=1;jettySize=auto;html=1;entryX=0;entryY=0.5;entryDx=0;entryDy=0;dashed=1;" parent="1" source="Q_MenP5QwrPpLCp4PIsN-8" target="Q_MenP5QwrPpLCp4PIsN-1" edge="1">
          <mxGeometry relative="1" as="geometry" />
        </mxCell>
        <mxCell id="Q_MenP5QwrPpLCp4PIsN-8" value="Tools (wagon)" style="html=1;verticalLabelPosition=bottom;align=center;labelBackgroundColor=#ffffff;verticalAlign=top;strokeWidth=2;strokeColor=#0080F0;shadow=0;dashed=0;shape=mxgraph.ios7.icons.tools;pointerEvents=1" parent="1" vertex="1">
          <mxGeometry x="10.299999999999997" y="450" width="29.7" height="29.7" as="geometry" />
        </mxCell>
        <mxCell id="Q_MenP5QwrPpLCp4PIsN-14" style="edgeStyle=entityRelationEdgeStyle;rounded=0;orthogonalLoop=1;jettySize=auto;html=1;dashed=1;" parent="1" source="Q_MenP5QwrPpLCp4PIsN-13" target="Q_MenP5QwrPpLCp4PIsN-8" edge="1">
          <mxGeometry relative="1" as="geometry" />
        </mxCell>
        <mxCell id="Q_MenP5QwrPpLCp4PIsN-13" value="Service Owner" style="shape=umlActor;verticalLabelPosition=bottom;verticalAlign=top;html=1;outlineConnect=0;" parent="1" vertex="1">
          <mxGeometry x="-220" y="435" width="30" height="60" as="geometry" />
        </mxCell>
        <mxCell id="Q_MenP5QwrPpLCp4PIsN-17" style="edgeStyle=none;rounded=0;orthogonalLoop=1;jettySize=auto;html=1;dashed=1;" parent="1" source="Q_MenP5QwrPpLCp4PIsN-15" target="Q_MenP5QwrPpLCp4PIsN-8" edge="1">
          <mxGeometry relative="1" as="geometry" />
        </mxCell>
        <mxCell id="Q_MenP5QwrPpLCp4PIsN-15" value="ESG (Tools Developers)" style="shape=umlActor;verticalLabelPosition=bottom;verticalAlign=top;html=1;outlineConnect=0;fillColor=#d5e8d4;strokeColor=#82b366;" parent="1" vertex="1">
          <mxGeometry x="10" y="300" width="30" height="60" as="geometry" />
        </mxCell>
        <mxCell id="Q_MenP5QwrPpLCp4PIsN-18" value="" style="sketch=0;outlineConnect=0;fontColor=#232F3E;gradientColor=none;fillColor=#7AA116;strokeColor=none;dashed=0;verticalLabelPosition=bottom;verticalAlign=top;align=center;html=1;fontSize=12;fontStyle=0;aspect=fixed;pointerEvents=1;shape=mxgraph.aws4.bucket;" parent="1" vertex="1">
          <mxGeometry x="1.1099999999999874" y="608" width="48.08" height="50" as="geometry" />
        </mxCell>
        <mxCell id="Q_MenP5QwrPpLCp4PIsN-19" style="edgeStyle=none;rounded=0;orthogonalLoop=1;jettySize=auto;html=1;entryX=0.542;entryY=1.154;entryDx=0;entryDy=0;entryPerimeter=0;startArrow=classic;startFill=1;dashed=1;endArrow=none;endFill=0;" parent="1" source="Q_MenP5QwrPpLCp4PIsN-18" target="Q_MenP5QwrPpLCp4PIsN-8" edge="1">
          <mxGeometry relative="1" as="geometry" />
        </mxCell>
        <mxCell id="Q_MenP5QwrPpLCp4PIsN-22" value="1" style="ellipse;whiteSpace=wrap;html=1;aspect=fixed;strokeWidth=2;fontFamily=Tahoma;spacingBottom=4;spacingRight=2;strokeColor=#d3d3d3;" parent="1" vertex="1">
          <mxGeometry x="-200" y="610" width="20" height="20" as="geometry" />
        </mxCell>
        <mxCell id="Q_MenP5QwrPpLCp4PIsN-23" value="2" style="ellipse;whiteSpace=wrap;html=1;aspect=fixed;strokeWidth=2;fontFamily=Tahoma;spacingBottom=4;spacingRight=2;strokeColor=#d3d3d3;" parent="1" vertex="1">
          <mxGeometry x="-100" y="710" width="20" height="20" as="geometry" />
        </mxCell>
        <mxCell id="Q_MenP5QwrPpLCp4PIsN-24" value="3" style="ellipse;whiteSpace=wrap;html=1;aspect=fixed;strokeWidth=2;fontFamily=Tahoma;spacingBottom=4;spacingRight=2;strokeColor=#d3d3d3;" parent="1" vertex="1">
          <mxGeometry x="-100.00000000000001" y="660" width="20" height="20" as="geometry" />
        </mxCell>
        <mxCell id="Q_MenP5QwrPpLCp4PIsN-25" value="4" style="ellipse;whiteSpace=wrap;html=1;aspect=fixed;strokeWidth=2;fontFamily=Tahoma;spacingBottom=4;spacingRight=2;strokeColor=#d3d3d3;" parent="1" vertex="1">
          <mxGeometry x="-110" y="435" width="20" height="20" as="geometry" />
        </mxCell>
        <mxCell id="6EMSi_ttVj-jGXqPHPJ0-17" style="edgeStyle=none;rounded=0;orthogonalLoop=1;jettySize=auto;html=1;" parent="1" source="Q_MenP5QwrPpLCp4PIsN-26" target="6EMSi_ttVj-jGXqPHPJ0-9" edge="1">
          <mxGeometry relative="1" as="geometry" />
        </mxCell>
        <mxCell id="Q_MenP5QwrPpLCp4PIsN-26" value="&lt;ol&gt;&lt;li&gt;? cost efficiency ...&amp;nbsp;&lt;/li&gt;&lt;li&gt;? proper db setup ...&amp;nbsp;&lt;/li&gt;&lt;li&gt;? professional maintainable ...&lt;/li&gt;&lt;li&gt;? flexible and scalable ...&lt;/li&gt;&lt;/ol&gt;" style="shape=callout;whiteSpace=wrap;html=1;perimeter=calloutPerimeter;align=left;dashed=1;strokeWidth=0;fillColor=#f5f5f5;fontColor=#333333;strokeColor=#666666;" parent="1" vertex="1">
          <mxGeometry x="730" y="420" width="340" height="130" as="geometry" />
        </mxCell>
        <mxCell id="6EMSi_ttVj-jGXqPHPJ0-1" value="RDS&lt;br&gt;(shared instance)" style="shape=cylinder3;whiteSpace=wrap;html=1;boundedLbl=1;backgroundOutline=1;size=15;" parent="1" vertex="1">
          <mxGeometry x="352.5" y="687" width="110" height="80" as="geometry" />
        </mxCell>
        <mxCell id="6EMSi_ttVj-jGXqPHPJ0-4" value="RDS&lt;br&gt;(shared instance)" style="shape=cylinder3;whiteSpace=wrap;html=1;boundedLbl=1;backgroundOutline=1;size=15;" parent="1" vertex="1">
          <mxGeometry x="542.5" y="687" width="110" height="80" as="geometry" />
        </mxCell>
        <mxCell id="6EMSi_ttVj-jGXqPHPJ0-7" style="edgeStyle=orthogonalEdgeStyle;curved=1;rounded=0;orthogonalLoop=1;jettySize=auto;html=1;dashed=1;" parent="1" source="6EMSi_ttVj-jGXqPHPJ0-5" target="6EMSi_ttVj-jGXqPHPJ0-6" edge="1">
          <mxGeometry relative="1" as="geometry" />
        </mxCell>
        <mxCell id="6EMSi_ttVj-jGXqPHPJ0-8" style="edgeStyle=entityRelationEdgeStyle;rounded=0;orthogonalLoop=1;jettySize=auto;html=1;dashed=1;" parent="1" source="6EMSi_ttVj-jGXqPHPJ0-5" target="Q_MenP5QwrPpLCp4PIsN-18" edge="1">
          <mxGeometry relative="1" as="geometry" />
        </mxCell>
        <mxCell id="6EMSi_ttVj-jGXqPHPJ0-5" value="DBE" style="shape=umlActor;verticalLabelPosition=bottom;verticalAlign=top;html=1;outlineConnect=0;fillColor=#fff2cc;strokeColor=#d6b656;" parent="1" vertex="1">
          <mxGeometry x="-220" y="700" width="30" height="60" as="geometry" />
        </mxCell>
        <mxCell id="LgoVwcYKGDCYE_BlqMR0-2" style="edgeStyle=none;rounded=0;orthogonalLoop=1;jettySize=auto;html=1;dashed=1;" edge="1" parent="1" source="6EMSi_ttVj-jGXqPHPJ0-6" target="Q_MenP5QwrPpLCp4PIsN-18">
          <mxGeometry relative="1" as="geometry" />
        </mxCell>
        <mxCell id="LgoVwcYKGDCYE_BlqMR0-3" style="edgeStyle=none;rounded=0;orthogonalLoop=1;jettySize=auto;html=1;" edge="1" parent="1" source="6EMSi_ttVj-jGXqPHPJ0-6" target="6EMSi_ttVj-jGXqPHPJ0-9">
          <mxGeometry relative="1" as="geometry" />
        </mxCell>
        <mxCell id="6EMSi_ttVj-jGXqPHPJ0-6" value="Tools (? wagon , or ?)" style="html=1;verticalLabelPosition=bottom;align=center;labelBackgroundColor=#ffffff;verticalAlign=top;strokeWidth=2;strokeColor=#CCCC00;shadow=0;dashed=0;shape=mxgraph.ios7.icons.tools;pointerEvents=1" parent="1" vertex="1">
          <mxGeometry x="10.299999999999997" y="715.15" width="29.7" height="29.7" as="geometry" />
        </mxCell>
        <mxCell id="6EMSi_ttVj-jGXqPHPJ0-14" style="edgeStyle=none;rounded=0;orthogonalLoop=1;jettySize=auto;html=1;entryX=0.5;entryY=0;entryDx=0;entryDy=0;entryPerimeter=0;dashed=1;" parent="1" source="Q_MenP5QwrPpLCp4PIsN-13" target="6EMSi_ttVj-jGXqPHPJ0-5" edge="1">
          <mxGeometry relative="1" as="geometry" />
        </mxCell>
        <mxCell id="6EMSi_ttVj-jGXqPHPJ0-15" value="5" style="ellipse;whiteSpace=wrap;html=1;aspect=fixed;strokeWidth=2;fontFamily=Tahoma;spacingBottom=4;spacingRight=2;strokeColor=#d3d3d3;" parent="1" vertex="1">
          <mxGeometry x="40" y="580" width="20" height="20" as="geometry" />
        </mxCell>
        <mxCell id="6EMSi_ttVj-jGXqPHPJ0-16" value="6" style="ellipse;whiteSpace=wrap;html=1;aspect=fixed;strokeWidth=2;fontFamily=Tahoma;spacingBottom=4;spacingRight=2;strokeColor=#d3d3d3;" parent="1" vertex="1">
          <mxGeometry x="230" y="400" width="20" height="20" as="geometry" />
        </mxCell>
        <mxCell id="LgoVwcYKGDCYE_BlqMR0-1" value="db infos" style="text;html=1;align=center;verticalAlign=middle;resizable=0;points=[];autosize=1;strokeColor=none;fillColor=none;" vertex="1" parent="1">
          <mxGeometry x="49.19" y="610" width="70" height="30" as="geometry" />
        </mxCell>
      </root>
    </mxGraphModel>
  </diagram>
</mxfile>
